# xmcd
#
# Track frame offsets: 
#        150
#        12955
#        24795
#        35822
#        50490
#        61740
#        74337
#        85522
#        103450
#        114680
#        123422
#        135532
#        146735
#        158990
#        173757
#        184270
#        195840
#        206915
#        218152
#        229495
#        240902
#        253342
#        264125
#        275175
#        290477
#        302452
#        313537
#        324207
#
# Disc length: 4486 seconds
#
# Revision: 0
# Processed by: cddbd v1.4PL0 Copyright (c) Steve Scherf et al.
# Submitted via: ExactAudioCopy v0.95a4
#
DISCID=9811841c
DTITLE=Dinah Washington - The EP Collection
DYEAR=1999
DGENRE=Blues
TTITLE0=Trouble In Mind
TTITLE1=New Blowtop Blues
TTITLE2=T.V. Is The Thing
TTITLE3=Gambler's Blues
TTITLE4=Makin' Whoopee
TTITLE5=They Didn't Believe Me
TTITLE6=Every Time We Say Goodbye
TTITLE7=I'll Close My Eyes
TTITLE8=What A Difference A Day Made
TTITLE9=Honky Tonk
TTITLE10=Somewhere Along The Line
TTITLE11=Come On Home
TTITLE12=Unforgettable
TTITLE13=Nothing In The World (Could Make Me Love You More Than I Do)
TTITLE14=It Could Happen To You
TTITLE15=The Age Of Miracles
TTITLE16=Cry Me A River
TTITLE17=Time After Time
TTITLE18=A Sunday Kind Of Love
TTITLE19=It's Magic
TTITLE20=Baby, You've Got What It Takes (Duet With Brook Benton)
TTITLE21=I Do (Duet With Brook Benton)
TTITLE22=A Rockin' Good Way (To Mess Around And Fall In Love) (Duet Wi
TTITLE22=th Brook Benton)
TTITLE23=I Believe (Duet With Brook Benton)
TTITLE24=A Bad Case Of The Blues
TTITLE25=This Bitter Earth
TTITLE26=Alone
TTITLE27=Ask A Woman Who Knows
EXTD=
EXTT0=
EXTT1=
EXTT2=
EXTT3=
EXTT4=
EXTT5=
EXTT6=
EXTT7=
EXTT8=
EXTT9=
EXTT10=
EXTT11=
EXTT12=
EXTT13=
EXTT14=
EXTT15=
EXTT16=
EXTT17=
EXTT18=
EXTT19=
EXTT20=
EXTT21=
EXTT22=
EXTT23=
EXTT24=
EXTT25=
EXTT26=
EXTT27=
PLAYORDER=
